Coordinates
version=1
nRows=9
nColumns=63
inDegrees=yes

Units are S.I. units (second, meters, Newtons, ...)
If the header above contains a line with 'inDegrees', this indicates whether rotational values are in degrees (yes) or radians (no).

endheader
time	pelvis_tilt	pelvis_list	pelvis_rotation	pelvis_tx	pelvis_ty	pelvis_tz	hip_flexion_r	hip_adduction_r	hip_rotation_r	knee_angle_r	knee_angle_r_beta	ankle_angle_r	subtalar_angle_r	mtp_angle_r	hip_flexion_l	hip_adduction_l	hip_rotation_l	knee_angle_l	knee_angle_l_beta	ankle_angle_l	subtalar_angle_l	mtp_angle_l	L5_S1_Flex_Ext	L5_S1_Lat_Bending	L5_S1_axial_rotation	L4_L5_Flex_Ext	L4_L5_Lat_Bending	L4_L5_axial_rotation	L3_L4_Flex_Ext	L3_L4_Lat_Bending	L3_L4_axial_rotation	L2_L3_Flex_Ext	L2_L3_Lat_Bending	L2_L3_axial_rotation	L1_L2_Flex_Ext	L1_L2_Lat_Bending	L1_L2_axial_rotation	L1_T12_Flex_Ext	L1_T12_Lat_Bending	L1_T12_axial_rotation	Abs_r3	Abs_r2	Abs_r1	Abs_t1	Abs_t2	neck_flexion	neck_bending	neck_rotation	arm_flex_r	arm_add_r	arm_rot_r	elbow_flex_r	pro_sup_r	wrist_flex_r	wrist_dev_r	arm_flex_l	arm_add_l	arm_rot_l	elbow_flex_l	pro_sup_l	wrist_flex_l	wrist_dev_l
      2.88135593	     -4.93202925	     -0.39977753	     84.29607444	      0.32452213	      0.98545847	      0.63273783	      3.55378441	     -6.03700371	     -9.73785246	     11.58614331	      0.20221635	     27.96415299	      9.88015451	      0.00000000	      3.85197186	      3.40185740	     15.68683264	      7.88647489	      0.13764495	     28.21867566	     -3.86169803	      0.00000000	      0.17277531	     -0.79324385	      0.11770254	      0.32086102	     -1.05501432	      0.12505895	      0.28385255	     -1.92869310	      0.12505895	      0.19746490	     -1.92869310	      0.10298972	      0.16043915	     -1.61758286	      0.09563331	      0.09872381	     -1.22873472	      0.08827691	      1.23411673	     -8.97333307	      0.65462622	      0.00000000	      0.00000000	     16.34831369	     -1.81272924	    -25.70303540	    251.64728455	   -108.13817354	    161.32642215	    141.79930451	     53.02793909	     29.79529597	     26.41227514	     85.89428135	    -53.06472890	    -14.01965401	    149.36051416	     87.20586524	     39.81273547	     26.65338294
      2.89830508	     -4.54633938	     -0.37718561	     84.00779635	      0.32320369	      0.98530024	      0.63237044	      3.43800584	     -5.64344595	     -8.93094796	     11.32001510	      0.19757153	     28.10279192	      9.39453653	      0.00000000	      3.49859674	      3.17453180	     17.54808143	      7.09553383	      0.12384043	     27.84317674	     -6.72966282	      0.00000000	      0.18134925	     -0.67890495	     -0.13819995	      0.33678369	     -0.90294359	     -0.14683744	      0.29793868	     -1.65068950	     -0.14683744	      0.20726406	     -1.65068950	     -0.12092495	      0.16840091	     -1.38442298	     -0.11228746	      0.10362296	     -1.05162377	     -0.10364996	      1.29535956	     -7.67990859	     -0.76862665	      0.00000000	      0.00000000	     14.98744919	     -2.66160226	    -22.26736445	    262.42494813	   -109.88120863	    170.27884340	    138.86927550	     44.34505362	     30.36375354	     29.31225399	     87.28322925	    -55.13602181	    -15.48819315	    148.79899145	     87.99466923	     41.26211668	     29.16436292
      2.91525424	     -4.44606318	     -0.28733039	     83.87659186	      0.32315109	      0.98554294	      0.63215886	      3.29716509	     -5.52921500	     -8.61826706	     11.08516880	      0.19347269	     28.50425328	      9.44460945	      0.00000000	      3.20585223	      3.07378822	     17.60880165	      6.45902080	      0.11273118	     27.84193416	     -7.09731220	      0.00000000	      0.18928940	     -0.65506204	     -0.22256593	      0.35152934	     -0.87123252	     -0.23647630	      0.31098355	     -1.59271785	     -0.23647630	      0.21633885	     -1.59271785	     -0.19474519	      0.17577413	     -1.33580252	     -0.18083482	      0.10815996	     -1.01469110	     -0.16692445	      1.35207524	     -7.41019283	     -1.23784494	      0.00000000	      0.00000000	     12.99107702	     -2.46793143	    -21.29675504	    265.14227637	   -110.98234863	    170.38535859	    137.26842856	     42.29901272	     29.70814440	     28.14210590	     89.01122542	    -55.79323004	    -14.03638376	    147.16063548	     88.50893232	     41.58408753	     30.06597082
      2.93220339	     -4.13333581	     -0.17240977	     83.79574171	      0.32182189	      0.98552901	      0.63236358	      3.11049045	     -5.20576427	     -7.80237842	     10.71351021	      0.18698603	     28.73090801	      8.73057805	      0.00000000	      2.87099772	      2.90042162	     19.08189887	      5.84536771	      0.10202091	     27.41949523	     -9.64905957	      0.00000000	      0.18095323	     -0.56656444	     -0.22352745	      0.33604825	     -0.75353070	     -0.23749791	      0.29728807	     -1.37754478	     -0.23749791	      0.20681145	     -1.37754478	     -0.19558652	      0.16803317	     -1.15533820	     -0.18161605	      0.10339668	     -0.87760832	     -0.16764559	      1.29253086	     -6.40909025	     -1.24319261	      0.00000000	      0.00000000	     11.95543822	     -2.85073315	    -18.58404483	    271.60323457	   -111.72482922	    174.28924832	    134.61775546	     32.37419464	     33.00137203	     30.02351218	     88.68437290	    -55.39745337	    -14.71783743	    145.68274940	     88.47727237	     43.59450083	     31.25120297
      2.94915254	     -3.96842664	     -0.03627463	     83.88499474	      0.32143457	      0.98562005	      0.63263527	      2.96702373	     -5.05971614	     -7.82401713	     10.52991168	      0.18378163	     29.10106586	      8.71794082	      0.00000000	      2.65562610	      2.76241012	     18.94481078	      5.49738765	      0.09594751	     27.44857581	     -9.90019056	      0.00000000	      0.17468119	     -0.53381863	     -0.17177292	      0.32440043	     -0.70997878	     -0.18250873	      0.28698372	     -1.29792662	     -0.18250873	      0.19964313	     -1.29792662	     -0.15030131	      0.16220895	     -1.08856295	     -0.13956550	      0.09981283	     -0.82688506	     -0.12882969	      1.24773024	     -6.03866312	     -0.95534945	      0.00000000	      0.00000000	     10.90507524	     -2.98497249	    -17.59199130	    273.20656457	   -112.27706160	    172.87013751	    133.66425561	     31.27727907	     32.79186302	     29.08863116	     88.47842154	    -54.99594068	    -13.92366827	    144.09943440	     88.45606702	     43.52492922	     31.49591773
      2.96610169	     -3.80875147	      0.08868470	     83.67750360	      0.32118561	      0.98564014	      0.63261625	      2.85461418	     -4.95147833	     -7.91294601	     10.38270144	      0.18121233	     29.30857488	      8.97156519	      0.00000000	      2.29200415	      2.63348466	     19.21890339	      4.94435722	      0.08629531	     27.11826867	    -11.15716189	      0.00000000	      0.17237505	     -0.49956740	     -0.00321249	      0.32011770	     -0.66442464	     -0.00341328	      0.28319497	     -1.21464817	     -0.00341328	      0.19700744	     -1.21464817	     -0.00281093	      0.16006747	     -1.01871784	     -0.00261015	      0.09849510	     -0.77382990	     -0.00240937	      1.23125773	     -5.65120631	     -0.01786693	      0.00000000	      0.00000000	     10.26542335	     -2.92443640	    -16.97878253	    275.48828516	   -111.79869627	    173.26946976	    132.41876924	     26.46776990	     34.70825417	     28.69161001	     88.01337775	    -54.43800178	    -13.23040151	    142.98731405	     88.37520279	     43.87678148	     31.84184650
      2.98305085	     -3.74026581	      0.11096329	     83.81471677	      0.32079766	      0.98548740	      0.63288993	      2.82636226	     -4.91291571	     -8.22425766	     10.34640408	      0.18057882	     29.35259329	      8.80740067	      0.00000000	      2.23681989	      2.59455717	     18.95117198	      4.75904718	      0.08306104	     27.16560569	    -11.33649860	      0.00000000	      0.17314069	     -0.48253435	      0.03571232	      0.32153957	     -0.64177069	      0.03794434	      0.28445283	     -1.17323402	      0.03794434	      0.19788249	     -1.17323402	      0.03124828	      0.16077844	     -0.98398405	      0.02901626	      0.09893259	     -0.74744571	      0.02678424	      1.23672660	     -5.45852509	      0.19862119	      0.00000000	      0.00000000	     10.04477334	     -3.05373369	    -16.71104835	    276.16191138	   -111.95220521	    172.42778787	    132.15667848	     26.18171004	     34.66603595	     28.41613674	     87.68538462	    -54.40808580	    -12.81704205	    142.45053438	     88.34676633	     43.90377689	     31.91987161
      3.00000000	     -3.78596160	      0.10690202	     83.88777715	      0.32089975	      0.98538444	      0.63290369	      2.93007999	     -5.19738889	    -10.66461853	     10.72500498	      0.18718665	     29.67035404	     11.49186600	      0.00000000	      2.16398207	      2.59547259	     17.68564781	      4.51155632	      0.07874151	     27.49289578	    -10.00381127	      0.00000000	      0.17180495	     -0.50318374	      0.10036140	      0.31905898	     -0.66923438	      0.10663399	      0.28225836	     -1.22344096	      0.10663399	      0.19635588	     -1.22344096	      0.08781623	      0.15953808	     -1.02609229	      0.08154364	      0.09816935	     -0.77943162	      0.07527105	      1.22718561	     -5.69211516	      0.55818002	      0.00000000	      0.00000000	      9.84313279	     -2.83200616	    -17.70410410	    275.17572315	   -111.26860799	    171.11824792	    132.26479342	     24.01355953	     34.94283640	     29.11098091	     88.31592223	    -53.82829617	    -11.87067686	    142.26695363	     88.26854634	     44.47466477	     32.00571884
      3.01694915	     -3.78072814	      0.07259709	     83.80418324	      0.32105065	      0.98512799	      0.63276056	      2.95782769	     -5.21824294	    -10.89468961	     10.86387553	      0.18961040	     29.37033511	     11.29307761	      0.00000000	      2.11162332	      2.58616810	     17.43560474	      4.35367258	      0.07598592	     27.57009689	    -10.21971467	      0.00000000	      0.16881283	     -0.50295316	      0.09637544	      0.31350231	     -0.66892771	      0.10239890	      0.27734260	     -1.22288032	      0.10239890	      0.19293618	     -1.22288032	      0.08432851	      0.15675959	     -1.02562209	      0.07830504	      0.09645965	     -0.77907445	      0.07228158	      1.20581316	     -5.68950678	      0.53601128	      0.00000000	      0.00000000	      9.95917280	     -2.83230369	    -17.88615653	    274.66091865	   -111.02049527	    171.43267814	    132.56903855	     24.24130859	     35.00100972	     29.36962736	     88.47793765	    -53.80613035	    -12.18783086	    142.83438562	     88.22486373	     44.51080192	     31.95629133
